<?xml version="1.0" standalone="no"?>
<!DOCTYPE svg PUBLIC "-//W3C//DTD SVG 20010904//EN"
 "http://www.w3.org/TR/2001/REC-SVG-20010904/DTD/svg10.dtd">
<svg version="1.0" xmlns="http://www.w3.org/2000/svg"
 width="314.000000pt" height="340.000000pt" viewBox="0 0 314.000000 340.000000"
 preserveAspectRatio="xMidYMid meet">

<g transform="translate(0.000000,340.000000) scale(0.100000,-0.100000)"
fill="#ffffff" stroke="none">
<path d="M1358 3276 c-115 -67 -210 -125 -213 -128 -4 -4 867 -488 880 -488 3
0 5 107 5 238 l-1 237 -225 130 c-124 72 -229 131 -232 132 -4 1 -100 -54
-214 -121z"/>
<path d="M658 2883 l-388 -216 0 -163 0 -164 -135 0 -135 0 0 -90 0 -90 230 0
230 0 2 201 3 202 235 132 c162 91 236 138 238 151 14 87 113 124 173 65 41
-41 40 -91 -1 -133 -31 -31 -35 -31 -126 -16 -6 1 -113 -54 -238 -123 l-226
-124 0 -177 0 -178 75 0 74 0 3 127 3 126 397 221 c219 122 398 224 398 227 0
5 -390 225 -419 236 -3 2 -180 -95 -393 -214z"/>
<path d="M2110 2854 l0 -249 185 -95 185 -95 0 -127 0 -128 60 0 60 0 0 179 0
179 -94 51 c-85 46 -97 50 -125 40 -22 -8 -40 -8 -66 1 -103 34 -84 180 23
180 44 0 75 -19 105 -66 15 -23 58 -56 127 -97 l105 -63 5 -225 5 -224 80
-107 c44 -59 83 -107 88 -108 4 0 7 58 7 128 0 71 3 243 7 383 l6 255 -359
204 c-197 112 -369 210 -381 218 l-23 14 0 -248z"/>
<path d="M1000 2880 c-27 -27 -26 -65 2 -84 32 -22 64 -20 82 6 22 32 20 64
-6 82 -30 21 -54 20 -78 -4z"/>
<path d="M1153 2582 l-403 -227 0 -97 0 -98 195 0 194 0 216 119 216 119 215
-119 215 -119 69 0 70 0 0 59 0 59 -285 157 -285 157 0 34 c0 19 3 34 8 34 4
0 151 -76 327 -168 l320 -167 3 -82 3 -83 90 0 90 0 -3 97 -3 97 -410 228
c-225 125 -417 227 -425 227 -8 0 -196 -102 -417 -227z"/>
<path d="M2300 2740 c-27 -27 -26 -65 2 -84 32 -22 64 -20 82 6 22 32 20 64
-6 82 -30 21 -54 20 -78 -4z"/>
<path d="M0 1695 l0 -385 431 0 432 0 -67 51 c-37 28 -70 57 -73 65 -4 12 -52
14 -284 14 l-279 0 0 95 0 95 230 0 230 0 0 65 0 65 -230 0 -230 0 0 100 0
100 277 0 276 0 35 41 c20 23 50 50 66 60 31 19 25 19 -391 19 l-423 0 0 -385z"/>
<path d="M995 2066 c-204 -65 -317 -215 -302 -399 8 -91 42 -160 112 -226 109
-103 262 -150 398 -121 80 16 188 73 231 120 l36 40 0 140 0 140 -170 0 -170
0 0 -65 0 -65 95 0 95 0 0 -59 c0 -41 -5 -65 -16 -76 -72 -72 -241 -70 -350 6
-52 36 -81 82 -96 151 -22 104 40 221 146 275 50 26 57 27 267 31 l215 4 28
44 c15 24 38 51 49 59 19 13 -7 15 -253 14 -193 0 -287 -4 -315 -13z"/>
<path d="M1720 2066 c-100 -27 -163 -94 -176 -188 -8 -60 9 -108 55 -156 56
-57 110 -73 289 -82 120 -7 161 -13 190 -28 70 -36 66 -103 -8 -146 -32 -20
-54 -21 -295 -24 l-260 -3 -40 -38 c-22 -21 -58 -50 -80 -65 l-40 -27 360 4
c408 5 434 8 497 74 93 98 99 199 16 289 -51 55 -128 81 -266 89 -175 10 -200
15 -232 42 -36 30 -41 80 -11 107 45 41 83 45 401 45 l305 0 283 -324 283
-325 75 0 74 0 0 385 0 385 -80 0 -81 0 7 -270 c4 -148 4 -270 1 -270 -3 0
-115 122 -248 270 l-241 270 -367 -1 c-256 0 -380 -4 -411 -13z"/>
<path d="M2350 1605 l0 -295 80 0 80 0 0 228 0 227 -57 68 c-40 47 -64 67 -80
67 l-23 0 0 -295z"/>
<path d="M2690 1158 l-1 -333 -356 -200 c-348 -196 -356 -201 -369 -240 -17
-50 -37 -65 -87 -65 -49 0 -73 13 -92 51 -38 72 56 176 124 140 18 -10 64 12
356 175 l335 186 0 174 0 175 -62 -3 -63 -3 -3 -121 -3 -120 -444 -242 c-244
-133 -449 -242 -456 -242 -6 0 -89 41 -184 90 -95 50 -175 90 -179 90 -3 0 -6
-103 -6 -229 l0 -229 182 -102 c148 -82 187 -100 204 -94 12 5 304 167 648
359 l626 350 0 163 0 162 140 0 140 0 0 90 0 90 -119 0 -119 0 -102 130 c-55
72 -103 130 -105 130 -3 0 -5 -150 -5 -332z"/>
<path d="M270 971 l0 -249 418 -231 417 -230 3 222 c1 122 1 226 -2 232 -2 6
-103 67 -225 135 l-221 125 0 123 0 123 -67 -3 -68 -3 -3 -170 c-3 -197 -2
-200 80 -189 43 6 50 4 78 -24 63 -63 26 -152 -64 -152 -37 0 -48 5 -70 31
-14 17 -26 41 -26 53 0 16 -11 29 -35 42 l-35 19 0 197 0 198 -90 0 -90 0 0
-249z"/>
<path d="M730 1122 l0 -99 420 -232 420 -232 408 229 407 230 3 101 3 101
-191 0 -190 0 -220 -114 -219 -114 -220 114 c-216 111 -222 114 -286 114 l-66
0 3 -62 3 -63 275 -152 c151 -84 281 -153 289 -153 7 0 87 42 177 93 145 81
165 96 175 125 18 56 91 88 140 62 30 -17 52 -68 44 -106 -8 -43 -46 -64 -115
-64 -45 0 -68 -10 -229 -100 -98 -55 -184 -100 -192 -100 -8 1 -153 79 -324
174 l-310 174 -3 86 -3 86 -99 0 -100 0 0 -98z"/>
<path d="M1980 1020 c-27 -27 -26 -65 2 -84 32 -22 64 -20 82 6 22 32 20 64
-6 82 -30 21 -54 20 -78 -4z"/>
<path d="M580 800 c-27 -27 -26 -65 2 -84 32 -22 64 -20 82 6 22 32 20 64 -6
82 -30 21 -54 20 -78 -4z"/>
<path d="M1840 460 c-27 -27 -26 -65 2 -84 32 -22 64 -20 82 6 22 32 20 64 -6
82 -30 21 -54 20 -78 -4z"/>
</g>
</svg>
